#!OML:ASF E:/inclinewalkrobotboard/Project1/Captureday1/Session1/subject1.ASF
:FULLY-SPECIFIED
:DEGREES
276
root 0 0 0 76.31432522031115 -27.425797965310817 -45.45492110446431
lowerback -11.189906230512815 7.863105375637291 9.566428714278885
upperback -20.51376974947057 10.07432251812148 2.95708024773833
thorax -15.451887827421483 3.9701445381006817 -1.7134675138146997
lowerneck -7.548150834035967 9.771097003077607 5.411949940027587
upperneck 11.715646494906386 11.678491557990883 7.287563124804173
head 4.807557376179782 6.266587261102167 2.076911604625685
rclavicle 6.094177931602961E-15 -3.395501721340856E-15
rhumerus 108.60437037590654 -24.896222912151494 -115.13226245992647
rradius 0.7806004661475683
rwrist 69.66766302492826
rhand 13.76779170326082 -12.61813556002735
rfingers 7.125020000000017
rthumb 38.76222092342336 -38.50332060065304
lclavicle -6.674775482369125E-16 1.538587458478082E-15
lhumerus -0.21498203922328862 25.04640640345872 1.8024558730887463
lradius 9.238208822452162
lwrist -41.49112035296445
lhand 12.076150048423601 36.71335029429491
lfingers 7.125020000000047
lthumb 37.18492170737101 63.8115178196997
rfemur 183.04418569897865 -219.7832684444469 -192.10271416765875
rtibia 67.28980216317845
rfoot -23.178691221072533 -9.809624488204765
rtoes 49.93814193031496
lfemur -109.58545082732937 35.779029302204975 -24.212209850033943
ltibia 68.33726021327712
lfoot -38.1976698500972 35.570217079282784
ltoes 38.86562528807879
277
root 0 0 0 76.31432455255636 -27.425801331420907 -45.45492531733865
lowerback -11.189899636168136 7.863106010718896 9.566429778523672
upperback -20.51376696197942 10.074323281430193 2.9570784297889356
thorax -15.451888401339726 3.9701446648726195 -1.7134702625967595
lowerneck -7.548155655184885 9.771097457044892 5.411950108306733
upperneck 11.71564211255744 11.678492157608904 7.28756273741457
head 4.807556624506643 6.266587590103344 2.076911577062936
rclavicle 6.094159703580775E-15 -3.395539888448761E-15
rhumerus 108.60515237066791 -24.896440398625447 -115.13283745721236
rradius 0.7805773864201484
rwrist 69.66788243993354
rhand 13.767489944222483 -12.61800981464973
rfingers 7.125020000000017
rthumb 38.761936044504495 -38.50325379998212
lclavicle -6.675070598671586E-16 1.5385698191066477E-15
lhumerus -0.21483488900218006 25.046411694417273 1.8024216166614266
lradius 9.238212921627763
lwrist -41.49110305637012
lhand 12.076136668674899 36.71335677081812
lfingers 7.125020000000047
lthumb 37.18490877639847 63.81152592371693
rfemur 183.04424836496509 -219.7833025140115 -192.1027512649801
rtibia 67.28980969830627
rfoot -23.178655007006636 -9.809565027197623
rtoes 49.93813031980091
lfemur -109.58540540663068 35.77902724488726 -24.212180055485444
ltibia 68.33721243052722
lfoot -38.197734721411045 35.57020589611332
ltoes 38.865630704011636
278
root 0 0 0 76.31432390833118 -27.425804533911332 -45.4549292446564
lowerback -11.18989343745528 7.863106605895494 9.56643075896904
upperback -20.513764334014944 10.074323995932298 2.9570767123379014
thorax -15.45188893371438 3.970144784062266 -1.7134728446824798
lowerneck -7.548160197326468 9.771097883002001 5.411950269053538
upperneck 11.715638000683102 11.678492719500086 7.287562369703192
head 4.807555921735534 6.266587898733037 2.076911550298613
rclavicle 6.094142359527705E-15 -3.3955756946666493E-15
rhumerus 108.6058844709822 -24.896644095514475 -115.13337425468514
rradius 0.7805563703626639
rwrist 69.6680868837806
rhand 13.767207766087168 -12.617892265602846
rfingers 7.125020000000017
rthumb 38.76166964710038 -38.50319137205834
lclavicle -6.675347885372643E-16 1.5385531178229653E-15
lhumerus -0.21469708682053046 25.04641690826665 1.8023897785331187
lradius 9.238216711149747
lwrist -41.49108692038652
lhand 12.076123830684352 36.713362707486986
lfingers 7.125020000000047
lthumb 37.18489637225465 63.8115334310213
rfemur 183.04430762318879 -219.78333375936305 -192.1027852984479
rtibia 67.28981809868645
rfoot -23.178616424839078 -9.809511233091655
rtoes 49.93811826704457
lfemur -109.58536141724423 35.779025091241216 -24.212151640437796
ltibia 68.33716583037449
lfoot -38.1977971085779 35.57019541765987
ltoes 38.865636235379746
279
root 0 0 0 76.31432328899942 -27.425807574739494 -45.454932904719435
lowerback -11.189887615802807 7.863107163309483 9.566431662526885
upperback -20.513761859239743 10.0743246643685 2.9570750919471087
thorax -15.451889427556983 3.9701448960220587 -1.713475268162897
lowerneck -7.548164472029288 9.77109828237928 5.411950422238801
upperneck 11.715634145459125 11.678493245696956 7.28756202127818
head 4.807555265002895 6.266588188041961 2.076911524422884
rclavicle 6.0941258891979E-15 -3.3956092614466866E-15
rhumerus 108.60656946386483 -24.896834760884634 -115.13387519839114
rradius 0.780537219744172
rwrist 69.6682773291196
rhand 13.766944029134894 -12.617782430730317
rfingers 7.125020000000017
rthumb 38.76142065604041 -38.50313305710115
lclavicle -6.675608198141455E-16 1.5385373285107145E-15
lhumerus -0.21456811620060634 25.046422012752398 1.8023601909616502
lradius 9.238220215072197
lwrist -41.49107187217943
lhand 12.076111547968722 36.713368152230856
lfingers 7.125020000000047
lthumb 37.18488450736674 63.81154038612412
rfemur 183.0443635810908 -219.78336242953884 -192.1028165370122
rtibia 67.28982712705603
rfoot -23.17857626354127 -9.809462526464676
rtoes 49.93810596281729
lfemur -109.58531898504646 35.77902287858051 -24.2121246010148
ltibia 68.33712060860573
lfoot -38.197856918109935 35.57018560580196
ltoes 38.86564181105175
280
root 0 0 0 76.3143226954464 -27.425810456944994 -45.45493631479592
lowerback -11.189882152739447 7.863107685040298 9.566432495503294
upperback -20.513759531130894 10.074325289378864 2.95707356495277
thorax -15.451889885660258 3.9701450011031953 -1.71347754103458
lowerneck -7.548168491091213 9.771098656577342 5.411950567906575
upperneck 11.715630533351165 11.678493738171138 7.2875616916483
head 4.8075546515690295 6.266588459057152 2.0769114995010756
rclavicle 6.094110276453985E-15 -3.3956407075485327E-15
rhumerus 108.60721003629799 -24.897013127551915 -115.1343425161427
rradius 0.7805197567477364
rwrist 69.6684546918178
rhand 13.766697641923876 -12.61767984908282
rfingers 7.125020000000017
rthumb 38.76118804161204 -38.50307860714498
lclavicle -6.675852384384747E-16 1.5385224217813293E-15
lhumerus -0.2144474782979433 25.046426982641588 1.8023326974671008
lradius 9.23822345550083
lwrist -41.49105784281306
lhand 12.076099826538314 36.71337314840821
lfingers 7.125020000000047
lthumb 37.18487318700312 63.81154683014615
rfemur 183.04441635555546 -219.78338875000384 -192.102845224288
rtibia 67.28983658496315
rfoot -23.178535178469183 -9.809418390835575
rtoes 49.938093564407794
lfemur -109.58527819839495 35.77902063776101 -24.212098921747298
ltibia 68.3370769120005
lfoot -38.19791409711275 35.57017642358799
ltoes 38.86564737281994
281
root 0 0 0 76.31432212816051 -27.42581318441955 -45.45493949115921
lowerback -11.189877030040957 7.863108173097583 9.566433263655522
upperback -20.513757343073244 10.074325873498017 2.957072127540573
thorax -15.451890310614028 3.970145099652722 -1.7134796711456382
lowerneck -7.548172266390641 9.771099006960053 5.4119507061600105
upperneck 11.715627151181796 11.678494198827126 7.287561380245965
head 4.807554078819484 6.266588712777173 2.0769114755777407
rclavicle 6.094095500511207E-15 -3.3956701484811235E-15
rhumerus 108.6078087698997 -24.8971799012466 -115.1347783197076
rradius 0.7805038217403748
rwrist 69.66861983339211
rhand 13.766467562023902 -12.617584081074446
rfingers 7.125020000000017
rthumb 38.7609708202695 -38.50302778604707
lclavicle -6.676081277215317E-16 1.5385083658490868E-15
lhumerus -0.21433469306492015 25.046431798633012 1.8023071521223812
lradius 9.238226452760443
lwrist -41.49104476713705
lhand 12.076088666249966 36.71337773527477
lfingers 7.125020000000047
lthumb 37.184862410567796 63.81155280108444
rfemur 183.04446607009345 -219.78341292504547 -192.102871581118
rtibia 67.28984630727506
rfoot -23.17849371051994 -9.809378365503424
rtoes 49.93808120048665
lfemur -109.58523911436507 35.779018394113734 -24.21207457788305
ltibia 68.33703484619713
lfoot -38.19796862615545 35.57016783534688
ltoes 38.86565287350055
282
root 0 0 0 76.31432158730333 -27.42581576171232 -45.45494244912842
lowerback -11.189872229847202 7.863108629416249 9.566433972243232
upperback -20.513755288435938 10.074326419152177 2.957070775808079
thorax -15.451890704820062 3.970145192011196 -1.7134816661531795
lowerneck -7.5481758097649445 9.771099334849202 5.411950837149379
upperneck 11.715623986181754 11.678494629497747 7.287561086446624
head 4.807553544264996 6.2665889501685195 2.0769114526801484
rclavicle 6.094081536990894E-15 -3.3956976960780344E-15
rhumerus 108.60836813753589 -24.897335759364182 -115.13518460762823
rradius 0.7804892712976255
rwrist 69.66877356347277
rhand 13.766252796173418 -12.617494708418564
rfingers 7.125020000000017
rthumb 38.76076805479626 -38.50298036938794
lclavicle -6.676295690674978E-16 1.5384951272636024E-15
lhumerus -0.21422930002875162 25.04643644641878 1.802283418882915
lradius 9.238229225546576
lwrist -41.491032583660854
lhand 12.0760780619614 36.71338194840037
lfingers 7.125020000000047
lthumb 37.184852172704666 63.811558334057125
rfemur 183.04451285249337 -219.7834351399106 -192.10289580785985
rtibia 67.28985615741642
rfoot -23.178452302725013 -9.80934203922785
rtoes 49.938068975315524
lfemur -109.58520176409796 35.7790161682526 -24.212051537347072
ltibia 68.33699448245274
lfoot -38.19802051317666 35.57015980676758
ltoes 38.8656582752913
283
root 0 0 0 76.3143210727695 -27.425818193865886 -45.45494520310984
lowerback -11.189867734754042 7.863109055853128 9.56643462607459
upperback -20.51375336063485 10.074326928657712 2.957069505816224
thorax -15.451891070505752 3.970145278510852 -1.7134835334904706
lowerneck -7.548179132912042 9.771099641520514 5.411950961061883
upperneck 11.715621026027959 11.678495031941193 7.287560809585021
head 4.807553045540371 6.266589172162931 2.0769114308212755
rclavicle 6.0940683588096534E-15 -3.395723458184861E-15
rhumerus 108.60889050153943 -24.89748135020444 -115.13556326852616
rradius 0.7804759764528377
rwrist 69.66891664226998
rhand 13.766052399967055 -12.61741133388494
rfingers 7.125020000000017
rthumb 38.76057885402223 -38.50293614428561
lclavicle -6.676496416022579E-16 1.5384826715206878E-15
lhumerus -0.21413085874827864 25.046440915876932 1.8022613709535449
lradius 9.238231791063626
lwrist -41.49102123441888
lhand 12.076068004513973 36.71338582004083
lfingers 7.125020000000047
lthumb 37.18484246423737 63.81156346152808
rfemur 183.044556832875 -219.78345556271142 -192.10291808642825
rtibia 67.28986602324377
rfoot -23.17841131461181 -9.809309044649908
rtoes 49.938056972386164
lfemur -109.58516615737918 35.779013976773086 -24.212029762400235
ltibia 68.33695586344443
lfoot -38.198069788287214 35.570152304951556
ltoes 38.865663548352856
